#!OML:ASF Y:\EmotionMaleHayes\Project 1\Capture day 1\Session 1\Male1.ASF
:FULLY-SPECIFIED
:DEGREES
1750
root 10.3354 16.359 -10.7758 534.338 -11.1047 188.374
lowerback 5.63507 5.29369 2.14557
upperback 1.7601 7.07424 -0.295126
thorax -1.02913 3.4991 -1.92853
lowerneck -21.5527 4.55989 6.86741
upperneck 28.1004 4.36223 -3.18701
head 13.2988 1.94576 -1.70023
rclavicle 5.35725e-014 0
rhumerus -16.3983 21.9946 -94.2469
rradius 61.3125
rwrist -3.39148
rhand -10.165 -31.3138
rfingers 7.12502
rthumb 15.8248 -60.6871
lclavicle 5.35725e-014 0
lhumerus -46.6139 10.3647 70.5953
lradius 23.2498
lwrist -15.7286
lhand -10.8068 -23.6604
lfingers 7.12502
lthumb 15.2066 5.76078
rfemur 14.8353 -4.84685 27.3585
rtibia 32.5564
rfoot -18.9519 4.64655
rtoes -6.32871
lfemur -16.6346 13.7318 -21.599
ltibia 18.1203
lfoot -13.3751 20.4295
ltoes 34.5407
1751
root 10.2935 16.3695 -10.9192 534.068 -11.8644 187.562
lowerback 6.00554 5.34412 1.33037
upperback 1.80019 7.08634 -0.583875
thorax -1.25492 3.49829 -1.81641
lowerneck -21.2463 4.53267 6.72776
upperneck 27.9077 4.3862 -3.14298
head 13.1508 1.95155 -1.65641
rclavicle 7.70291e-014 1.27222e-014
rhumerus -16.7945 21.455 -94.6788
rradius 60.6475
rwrist -2.65907
rhand -10.3186 -30.8198
rfingers 7.12502
rthumb 15.6768 -60.2047
lclavicle 7.70291e-014 1.27222e-014
lhumerus -45.9799 10.5861 70.6041
lradius 23.0424
lwrist -16.4811
lhand -10.1174 -23.6318
lfingers 7.12502
lthumb 15.8706 5.73781
rfemur 13.8443 -5.59205 25.6581
rtibia 35.742
rfoot -16.0216 5.72434
rtoes -5.93993
lfemur -15.9359 13.0055 -22.6514
ltibia 18.6183
lfoot -13.4471 20.3935
ltoes 33.8125
1752
root 10.2463 16.3824 -11.0611 533.775 -12.7635 186.857
lowerback 6.35239 5.3685 0.786152
upperback 1.83486 7.06737 -0.962645
thorax -1.42967 3.48209 -1.93837
lowerneck -20.8326 4.45325 6.80916
upperneck 27.691 4.26697 -3.13127
head 12.9714 1.91388 -1.68923
rclavicle 2.98177e-015 1.43125e-014
rhumerus -17.3386 20.9718 -95.1537
rradius 60.0723
rwrist -2.02588
rhand -10.3134 -30.0621
rfingers 7.12502
rthumb 15.6819 -59.4466
lclavicle 2.98177e-015 1.43125e-014
lhumerus -45.3106 10.2902 70.7854
lradius 22.9959
lwrist -16.7293
lhand -9.74846 -23.6795
lfingers 7.12502
lthumb 16.2259 5.66145
rfemur 12.8624 -6.14654 24.1194
rtibia 38.8573
rfoot -12.5972 6.98597
rtoes -1.56107
lfemur -15.126 12.4321 -23.6845
ltibia 19.0285
lfoot -13.589 19.904
ltoes 33.1933
1753
root 10.1973 16.3979 -11.2048 533.524 -13.5297 186.235
lowerback 6.60701 5.3879 0.379932
upperback 1.92856 7.04163 -1.32415
thorax -1.47801 3.4622 -2.10386
lowerneck -20.6213 4.41774 6.76451
upperneck 27.525 4.2258 -3.04786
head 12.8541 1.90671 -1.65675
rclavicle -3.46879e-014 6.36111e-015
rhumerus -17.844 20.9085 -95.5491
rradius 59.5876
rwrist -1.64314
rhand -10.3913 -29.3637
rfingers 7.12502
rthumb 15.6068 -58.7541
lclavicle -3.46879e-014 6.36111e-015
lhumerus -44.6484 10.034 71.0442
lradius 23.1641
lwrist -16.4956
lhand -9.3202 -23.713
lfingers 7.12502
lthumb 16.6382 5.59389
rfemur 11.8464 -6.359 22.7767
rtibia 41.8154
rfoot -8.9217 7.87128
rtoes 4.31945
lfemur -14.2574 12.0071 -24.5894
ltibia 19.327
lfoot -13.9518 19.3861
ltoes 33.0844
1754
root 10.1448 16.4128 -11.3443 533.22 -14.1786 185.778
lowerback 6.90864 5.39569 0.186808
upperback 2.04149 7.0142 -1.57231
thorax -1.52101 3.44118 -2.27354
lowerneck -21.0736 4.4961 7.08326
upperneck 27.9393 4.33722 -3.51377
head 13.146 1.91892 -1.87278
rclavicle -3.43897e-014 -1.11319e-014
rhumerus -18.2154 20.8905 -95.8217
rradius 58.9123
rwrist -1.20967
rhand -10.2063 -28.8433
rfingers 7.12502
rthumb 15.785 -58.2197
lclavicle -3.43897e-014 -1.11319e-014
lhumerus -44.145 9.85861 71.4471
lradius 23.6059
lwrist -16.0566
lhand -9.08272 -23.6719
lfingers 7.12502
lthumb 16.8668 5.61566
rfemur 10.8131 -6.72201 21.4851
rtibia 44.5924
rfoot -5.332 8.42735
rtoes 6.57825
lfemur -13.2397 11.4383 -25.2579
ltibia 19.402
lfoot -14.3015 19.2096
ltoes 32.901
1755
root 10.0894 16.4241 -11.4763 532.885 -14.8519 185.448
lowerback 7.18839 5.35485 0.0622978
upperback 2.1814 6.92906 -1.72383
thorax -1.53017 3.39194 -2.3738
lowerneck -20.9653 4.65409 7.14287
upperneck 27.9752 4.63082 -3.76827
head 13.1665 2.01745 -1.93243
rclavicle -1.2434e-013 1.43125e-014
rhumerus -18.5937 20.9932 -95.9586
rradius 58.2807
rwrist -0.793615
rhand -9.71243 -28.1676
rfingers 7.12502
rthumb 16.2606 -57.5057
lclavicle -1.2434e-013 1.43125e-014
lhumerus -43.6307 9.60163 72.0496
lradius 24.1472
lwrist -15.3954
lhand -9.31942 -23.5776
lfingers 7.12502
lthumb 16.6389 5.72923
rfemur 9.78284 -7.20861 20.2624
rtibia 47.1855
rfoot -1.76886 8.94715
rtoes 8.05026
lfemur -12.2147 10.9884 -25.7703
ltibia 19.4252
lfoot -14.8495 18.8574
ltoes 33.8461
1756
root 10.0334 16.4347 -11.604 532.592 -15.5354 185.046
lowerback 7.37697 5.33409 -0.282023
upperback 2.36917 6.85445 -1.82167
thorax -1.47178 3.34691 -2.28801
lowerneck -20.9071 4.80126 7.25787
upperneck 28.0197 4.90187 -4.06963
head 13.2041 2.10574 -2.02335
rclavicle -5.96354e-015 5.24792e-014
rhumerus -19.0323 21.4901 -95.9246
rradius 57.9029
rwrist -0.666703
rhand -9.27454 -27.8866
rfingers 7.12502
rthumb 16.6822 -57.1898
lclavicle -5.96354e-015 5.24792e-014
lhumerus -42.9717 9.13611 72.8886
lradius 24.6803
lwrist -14.3698
lhand -9.62238 -23.459
lfingers 7.12502
lthumb 16.3473 5.87208
rfemur 8.67712 -6.74897 19.5917
rtibia 49.7873
rfoot 1.41961 8.75511
rtoes 13.6035
lfemur -11.2032 10.7719 -26.3317
ltibia 19.3883
lfoot -15.2102 18.4193
ltoes 34.2938
1757
root 9.97484 16.4434 -11.7305 532.379 -16.2936 184.419
lowerback 7.58833 5.33697 -0.896965
upperback 2.52322 6.78984 -1.89178
thorax -1.49474 3.30454 -2.03192
lowerneck -20.7964 4.92884 7.20457
upperneck 28.1394 5.22807 -4.45125
head 13.2638 2.18476 -2.11067
rclavicle -3.0911e-014 -3.49861e-014
rhumerus -19.3343 21.8588 -95.7943
rradius 57.2042
rwrist -0.347673
rhand -9.05761 -27.8975
rfingers 7.12502
rthumb 16.891 -57.1829
lclavicle -3.0911e-014 -3.49861e-014
lhumerus -42.5525 8.59672 73.8877
lradius 25.5177
lwrist -13.1838
lhand -9.61763 -23.2447
lfingers 7.12502
lthumb 16.3518 6.08598
rfemur 7.62711 -6.34897 18.4701
rtibia 52.2037
rfoot 4.68794 8.61052
rtoes 19.4553
lfemur -10.1184 10.5504 -27.1853
ltibia 19.2337
lfoot -15.1906 18.1083
ltoes 33.287
1758
root 9.91634 16.4498 -11.8565 532.402 -17.1913 183.374
lowerback 7.72654 5.3271 -1.88688
upperback 2.65734 6.67138 -2.07364
thorax -1.5269 3.23117 -1.6749
lowerneck -20.7175 5.10765 7.14374
upperneck 28.2892 5.6433 -4.87827
head 13.3527 2.29336 -2.19924
rclavicle 2.6339e-014 -3.65764e-014
rhumerus -19.4745 21.9272 -95.6754
rradius 56.1943
rwrist 0.31226
rhand -8.51563 -27.5808
rfingers 7.12502
rthumb 17.4126 -56.8209
lclavicle 2.6339e-014 -3.65764e-014
lhumerus -42.1883 7.85113 75.0331
lradius 26.5525
lwrist -11.6664
lhand -9.65404 -22.8201
lfingers 7.12502
lthumb 16.3168 6.51344
rfemur 6.50659 -6.318 16.7131
rtibia 54.3843
rfoot 7.78496 8.74136
rtoes 19.3713
lfemur -9.0108 10.1923 -28.6044
ltibia 18.8781
lfoot -15.2613 17.7366
ltoes 32.8596
1759
root 9.86473 16.4585 -11.9787 532.659 -18.1675 182.141
lowerback 7.7415 5.30695 -3.08729
upperback 2.79975 6.51632 -2.37469
thorax -1.4883 3.13412 -1.30899
lowerneck -20.7714 5.28019 7.24255
upperneck 28.4032 5.97673 -5.25821
head 13.4558 2.39218 -2.30796
rclavicle -1.12413e-013 2.06736e-014
rhumerus -19.6591 22.0547 -95.6178
rradius 55.4543
rwrist 0.872834
rhand -7.45574 -27.509
rfingers 7.12502
rthumb 18.4325 -56.6557
lclavicle -1.12413e-013 2.06736e-014
lhumerus -41.601 6.58563 76.2769
lradius 27.5678
lwrist -9.67985
lhand -9.80977 -22.4545
lfingers 7.12502
lthumb 16.1668 6.89125
rfemur 5.14992 -6.49015 14.7364
rtibia 56.497
rfoot 10.5537 9.03848
rtoes 16.7869
lfemur -8.01029 9.83946 -30.2132
ltibia 18.3403
lfoot -15.3667 17.2333
ltoes 33.0506
